<?xml version="1.0" standalone="no"?>
<!DOCTYPE svg PUBLIC "-//W3C//DTD SVG 20010904//EN"
 "http://www.w3.org/TR/2001/REC-SVG-20010904/DTD/svg10.dtd">
<svg version="1.0" xmlns="http://www.w3.org/2000/svg"
 width="300.000000pt" height="208.000000pt" viewBox="0 0 300.000000 208.000000"
 preserveAspectRatio="xMidYMid meet">
<metadata>
Created by potrace 1.10, written by Peter Selinger 2001-2011
</metadata>
<g transform="translate(0.000000,208.000000) scale(0.100000,-0.100000)"
fill="#000000" stroke="none">
<path d="M380 2055 c-177 -21 -336 -61 -359 -89 -10 -12 -8 -23 8 -53 11 -21
23 -50 26 -65 3 -14 13 -29 23 -31 14 -4 13 -5 -4 -6 -42 -2 -67 -55 -44 -91
9 -13 13 -11 31 9 11 13 17 31 14 39 -4 10 0 12 11 8 8 -3 22 -6 30 -6 24 0
15 -15 -16 -27 -17 -6 -30 -15 -30 -20 0 -9 241 -125 247 -119 2 1 -21 19 -51
39 -66 44 -81 66 -61 93 11 15 16 16 26 7 9 -9 9 -15 0 -26 -9 -12 -5 -20 20
-41 17 -15 48 -35 68 -46 32 -16 39 -16 55 -4 23 16 24 15 -32 39 -59 26 -66
36 -45 74 10 17 21 31 25 31 14 0 38 32 38 50 0 10 -11 32 -25 49 l-26 30 33
6 c192 32 600 32 811 -1 l37 -6 -25 -30 c-30 -35 -32 -73 -6 -90 15 -9 17 -15
9 -25 -8 -10 -6 -18 6 -32 16 -18 16 -20 -17 -45 -19 -14 -39 -26 -45 -26 -7
0 -12 -4 -12 -10 0 -26 69 1 108 43 22 24 23 26 5 35 -14 8 -15 13 -6 23 15
15 43 5 43 -16 0 -30 -20 -54 -65 -80 -40 -24 -43 -28 -32 -46 16 -26 51 -20
137 25 36 18 83 39 105 46 22 7 44 16 49 20 9 9 -14 34 -54 62 l-25 17 25 0
c18 1 30 -8 42 -29 22 -39 35 -38 43 2 12 53 -17 68 -129 68 -69 0 -97 4 -112
16 -18 15 -18 15 0 10 10 -4 58 -9 107 -13 l88 -6 26 59 c14 32 24 65 23 73
-7 33 -191 81 -406 106 -155 18 -542 18 -692 0z m610 -5 c202 -19 458 -72 475
-100 3 -5 -4 -26 -15 -47 -11 -21 -20 -43 -20 -51 0 -9 -5 -9 -23 3 -38 24
-168 53 -320 71 -201 23 -632 15 -798 -14 -65 -12 -141 -30 -170 -42 -62 -23
-62 -23 -54 -10 3 6 -4 28 -16 50 -14 25 -19 44 -13 49 29 29 303 83 479 94
122 8 370 6 475 -3z m-678 -177 c37 -35 35 -45 -4 -31 -23 8 -55 8 -125 -2
-96 -13 -121 -10 -84 9 15 9 146 45 180 50 3 1 18 -11 33 -26z m1067 -19 c55
-23 29 -28 -73 -14 -82 11 -98 10 -125 -3 -38 -19 -39 -16 -1 27 l30 34 68
-15 c37 -9 82 -22 101 -29z m-1113 -31 c-4 -4 -39 -9 -79 -10 -84 -3 -77 5 14
16 66 7 78 6 65 -6z m58 1 c24 -9 19 -29 -9 -42 -35 -16 -149 -15 -210 2 l-50
14 95 1 c62 1 104 7 120 16 29 16 33 17 54 9z m902 -11 c20 -13 47 -16 118
-15 73 1 87 -1 71 -10 -27 -16 -231 -14 -251 3 -12 10 -12 13 3 25 23 17 29
17 59 -3z m-1166 -52 c0 -11 -4 -22 -9 -25 -11 -7 -23 22 -15 35 9 16 24 10
24 -10z m1400 -12 c0 -11 -4 -17 -10 -14 -5 3 -10 15 -10 26 0 11 5 17 10 14
6 -3 10 -15 10 -26z m-170 1 c0 -5 -4 -10 -10 -10 -5 0 -10 5 -10 10 0 6 5 10
10 10 6 0 10 -4 10 -10z m73 -18 c21 -23 13 -34 -48 -66 -27 -15 -64 -36 -82
-47 -18 -11 -43 -19 -55 -17 -19 2 -13 9 35 36 31 19 57 36 57 38 0 3 -6 2
-12 -1 -7 -4 -4 1 6 9 11 9 25 16 30 16 6 0 4 -5 -4 -10 -29 -19 -1 -10 34 11
38 22 47 33 19 22 -11 -4 -14 -3 -9 5 5 8 2 10 -9 5 -12 -4 -13 -8 -5 -13 8
-5 7 -9 -4 -13 -25 -10 -28 10 -4 27 28 20 31 20 51 -2z m-1193 -13 c0 -15 -4
-19 -16 -15 -9 3 -18 6 -20 6 -2 0 -4 7 -4 15 0 8 9 15 20 15 14 0 20 -7 20
-21z"/>
<path d="M537 2034 c-4 -4 -7 -26 -6 -48 l1 -41 9 39 c10 42 8 62 -4 50z"/>
<path d="M572 1998 c3 -37 6 -42 23 -40 25 5 24 1 15 47 -7 38 -8 38 -9 8 0
-17 -6 -35 -13 -39 -8 -5 -9 3 -5 29 3 22 2 37 -4 37 -6 0 -9 -19 -7 -42z"/>
<path d="M629 2035 c-3 -2 -3 -20 -1 -40 4 -35 22 -43 30 -14 3 11 1 11 -8 -1
-8 -12 -9 -6 -4 23 5 32 -2 47 -17 32z"/>
<path d="M671 2003 c-1 -39 1 -43 24 -43 14 0 25 6 25 13 0 8 4 7 10 -3 8 -12
10 -10 10 8 0 13 -4 21 -9 18 -4 -3 -6 6 -3 19 2 15 0 25 -7 25 -6 0 -12 -17
-12 -37 l-2 -38 -7 40 c-4 22 -8 31 -9 20 -2 -20 -2 -20 -11 0 -7 15 -9 10 -9
-22z"/>
<path d="M750 2000 c0 -22 3 -40 8 -40 4 0 6 18 4 40 -2 22 -6 40 -8 40 -2 0
-4 -18 -4 -40z"/>
<path d="M800 2016 c0 -13 -3 -33 -6 -43 -5 -15 -4 -16 5 -3 10 13 12 13 21 0
6 -9 10 -10 10 -3 0 6 -4 14 -9 17 -4 3 -6 17 -3 31 2 15 0 25 -7 25 -6 0 -11
-11 -11 -24z"/>
<path d="M843 2002 c1 -53 21 -50 24 4 1 32 0 34 -6 14 l-8 -25 -5 25 c-4 16
-6 9 -5 -18z"/>
<path d="M880 2000 c0 -22 2 -40 4 -40 2 0 6 18 8 40 2 22 0 40 -4 40 -5 0 -8
-18 -8 -40z"/>
<path d="M915 2028 c-9 -22 -2 -68 10 -71 14 -3 19 63 6 76 -7 7 -12 5 -16 -5z
m12 -45 c-3 -10 -5 -2 -5 17 0 19 2 27 5 18 2 -10 2 -26 0 -35z"/>
<path d="M430 1991 c0 -30 4 -41 16 -41 11 0 14 9 12 37 -4 52 -28 56 -28 4z
m17 -18 c-3 -10 -5 -2 -5 17 0 19 2 27 5 18 2 -10 2 -26 0 -35z"/>
<path d="M492 1990 c0 -25 2 -39 5 -31 5 11 7 11 14 0 6 -9 8 2 8 31 0 33 -3
40 -8 25 -8 -20 -8 -20 -13 0 -3 11 -6 0 -6 -25z"/>
<path d="M952 1993 c4 -52 28 -56 28 -4 0 30 -4 41 -16 41 -11 0 -14 -9 -12
-37z m15 -5 c-3 -7 -5 -2 -5 12 0 14 2 19 5 13 2 -7 2 -19 0 -25z"/>
<path d="M990 1989 c0 -52 24 -48 28 4 2 28 -1 37 -12 37 -12 0 -16 -11 -16
-41z m17 -16 c-3 -10 -5 -2 -5 17 0 19 2 27 5 18 2 -10 2 -26 0 -35z"/>
<path d="M1030 1990 c0 -33 3 -40 18 -38 18 3 35 55 24 73 -4 5 -10 -3 -13
-20 l-7 -30 -1 28 c-2 43 -21 31 -21 -13z"/>
<path d="M326 1985 c8 -50 14 -58 14 -19 0 16 -5 36 -11 44 -7 11 -8 4 -3 -25z"/>
<path d="M350 1981 c0 -30 4 -41 16 -41 11 0 14 9 12 37 -4 52 -28 56 -28 4z
m17 -18 c-3 -10 -5 -4 -5 12 0 17 2 24 5 18 2 -7 2 -21 0 -30z"/>
<path d="M391 1978 c1 -40 2 -41 9 -13 7 27 8 27 9 6 0 -13 4 -22 7 -18 9 8
-6 67 -17 67 -5 0 -8 -19 -8 -42z"/>
<path d="M1092 1995 c3 -13 1 -22 -3 -19 -5 3 -9 -5 -9 -18 0 -17 3 -19 9 -9
7 11 9 11 14 0 3 -8 6 5 6 29 1 25 -4 42 -10 42 -7 0 -9 -10 -7 -25z"/>
<path d="M1153 2000 c3 -11 1 -18 -4 -14 -5 3 -9 -9 -9 -25 0 -30 17 -43 24
-18 15 47 15 65 0 71 -13 5 -15 2 -11 -14z m4 -52 c-3 -8 -6 -5 -6 6 -1 11 2
17 5 13 3 -3 4 -12 1 -19z"/>
<path d="M254 1995 c-4 -9 -2 -30 5 -48 7 -22 9 -24 6 -7 -3 21 -2 22 8 10 19
-24 47 -24 47 -1 0 11 -4 22 -10 26 -5 3 -7 12 -3 20 3 8 0 15 -6 15 -14 0
-14 -16 -1 -41 8 -15 7 -19 -5 -19 -9 0 -15 9 -15 24 0 30 -18 44 -26 21z"/>
<path d="M1206 1985 c-4 -16 -9 -36 -12 -43 -2 -7 0 -11 5 -7 5 3 12 -1 14 -7
4 -9 6 -8 6 2 1 13 2 13 11 0 8 -12 10 -12 10 5 0 11 3 30 6 43 4 13 2 22 -5
22 -6 0 -12 -10 -12 -22 -1 -18 -3 -17 -9 7 l-7 30 -7 -30z"/>
<path d="M207 1993 c-12 -21 -15 -60 -7 -73 7 -11 10 -4 11 25 l1 40 9 -32 c5
-18 14 -33 21 -33 7 0 7 4 0 13 -6 7 -9 25 -8 40 3 25 -16 39 -27 20z"/>
<path d="M552 1980 c0 -14 2 -19 5 -12 2 6 2 18 0 25 -3 6 -5 1 -5 -13z"/>
<path d="M1255 1964 c-3 -20 -4 -39 -1 -42 3 -3 6 2 6 11 0 10 3 17 8 17 4 0
7 11 7 25 0 37 -12 30 -20 -11z"/>
<path d="M165 1980 c-4 -6 -3 -25 1 -43 7 -32 7 -32 15 -7 10 36 10 60 0 60
-6 0 -13 -5 -16 -10z m12 -22 c-3 -8 -6 -5 -6 6 -1 11 2 17 5 13 3 -3 4 -12 1
-19z"/>
<path d="M1290 1972 c0 -13 -5 -33 -11 -45 -7 -12 -8 -19 -4 -15 4 4 16 3 26
-2 15 -9 20 -5 28 27 6 20 8 39 6 42 -3 2 -8 -10 -11 -27 -4 -18 -13 -32 -21
-32 -11 0 -11 4 -3 20 7 14 8 26 1 38 -9 15 -10 14 -11 -6z"/>
<path d="M124 1972 c-8 -5 -7 -17 2 -42 7 -19 13 -28 13 -20 1 13 2 13 12 0 7
-11 8 -6 4 20 -8 41 -16 52 -31 42z"/>
<path d="M1352 1964 c-15 -28 -19 -63 -7 -63 6 0 10 7 11 17 2 37 4 43 14 37
6 -4 8 -21 4 -41 -8 -46 11 -45 31 2 19 46 19 46 -2 42 -10 -2 -23 3 -29 11
-10 13 -13 12 -22 -5z m46 -39 c-6 -14 -13 -23 -15 -21 -5 5 15 46 22 46 3 0
-1 -11 -7 -25z"/>
<path d="M91 1962 c-1 -7 -5 -10 -11 -7 -15 9 -12 -6 10 -45 14 -27 20 -31 25
-19 3 9 -1 32 -9 50 -8 19 -15 28 -15 21z m18 -57 c0 -5 -4 -3 -9 5 -5 8 -9
22 -9 30 0 16 17 -16 18 -35z"/>
<path d="M1510 1851 c0 -82 4 -161 10 -175 18 -49 52 -61 177 -61 l114 0 2
193 2 192 -52 0 -53 0 0 -146 0 -145 -42 3 -43 3 -3 143 -3 142 -54 0 -55 0 0
-149z m74 88 c3 -17 6 -73 6 -123 0 -115 12 -136 75 -136 67 0 75 18 75 167 0
115 1 123 19 123 17 0 20 -10 26 -72 3 -40 5 -113 3 -163 l-3 -90 -104 1
c-142 0 -141 0 -141 185 0 129 1 139 19 139 13 0 20 -10 25 -31z"/>
<path d="M1860 1805 l0 -195 55 0 55 0 0 150 0 150 29 0 c61 0 61 1 61 -156
l0 -144 55 0 55 0 0 138 c0 234 -14 252 -197 252 l-113 0 0 -195z m168 163
c105 -4 106 -7 109 -178 2 -132 1 -139 -18 -145 -11 -4 -23 -4 -26 -1 -4 3 -9
64 -12 136 -3 71 -11 134 -17 140 -21 21 -78 23 -103 3 -22 -18 -23 -24 -22
-141 1 -68 -1 -127 -4 -131 -3 -5 -14 -7 -25 -4 -19 5 -20 14 -20 162 0 87 3
161 7 164 3 4 18 5 32 2 14 -2 59 -5 99 -7z"/>
<path d="M2320 1996 c0 -2 23 -67 50 -144 28 -77 50 -141 50 -143 0 -2 -22 -4
-50 -4 -27 0 -50 0 -50 0 2 0 40 132 40 138 0 4 -22 7 -48 7 l-48 0 -34 -107
c-19 -60 -36 -114 -38 -120 -3 -10 37 -13 177 -13 100 0 181 3 181 8 0 4 -27
90 -58 192 l-58 185 -57 3 c-31 2 -57 1 -57 -2z m135 -161 c23 -71 45 -142 49
-157 l6 -27 -140 -3 c-77 -2 -140 -1 -140 1 0 3 12 42 27 88 21 63 31 83 45
83 21 0 22 -6 6 -64 -16 -62 -2 -78 65 -74 76 5 79 17 33 145 -55 156 -53 145
-21 141 27 -3 31 -10 70 -133z"/>
<path d="M2570 1804 l0 -195 51 3 51 3 -1 148 -2 148 103 -3 103 -3 3 -147 3
-148 55 0 55 0 -3 166 -3 166 -33 29 -32 29 -175 0 -175 0 0 -196z m368 146
c21 -19 22 -30 22 -160 0 -131 -1 -140 -19 -140 -27 0 -31 18 -31 140 0 105
-1 109 -26 129 -22 18 -41 21 -113 21 -47 0 -93 -5 -101 -10 -12 -7 -16 -39
-20 -147 -5 -135 -6 -138 -27 -139 -23 -1 -23 -1 -23 162 l0 164 158 0 c145 0
160 -2 180 -20z"/>
<path d="M919 1904 c0 -11 -3 -13 -6 -6 -10 25 -24 11 -21 -20 3 -33 3 -33
-36 -30 -44 4 -47 -14 -5 -35 24 -13 24 -13 -8 -13 -42 0 -42 -17 -2 -34 25
-10 28 -14 14 -20 -9 -3 -28 -6 -41 -6 -29 0 -32 -25 -5 -40 14 -7 28 -7 47 0
24 9 25 9 14 -5 -7 -9 -29 -15 -51 -15 -40 0 -48 -7 -27 -28 17 -17 71 -15 94
4 19 15 19 16 -1 8 -11 -4 -33 -9 -50 -11 -25 -3 -22 0 20 21 59 30 59 30 52
12 -7 -17 19 -30 29 -15 3 6 12 8 20 5 8 -3 14 0 14 6 0 7 7 5 18 -4 9 -9 24
-18 32 -21 10 -4 11 -6 2 -6 -7 -1 -22 4 -32 9 -10 6 -21 6 -24 1 -3 -4 -19
-7 -35 -5 -17 2 -33 0 -35 -5 -8 -12 136 -11 152 1 19 16 14 26 -11 21 -34 -7
-57 21 -57 69 0 38 1 40 25 34 32 -8 75 12 54 25 -11 7 -11 9 3 9 9 0 21 -7
26 -17 9 -14 10 -14 16 5 10 30 3 38 -52 56 -26 9 -53 26 -60 37 -10 16 -17
18 -25 10 -8 -8 -16 -6 -29 6 -17 15 -18 15 -19 -3z m29 -38 c0 -14 -7 -27
-14 -30 -8 -3 -14 -12 -14 -19 0 -27 -37 -50 -67 -42 l-28 8 29 6 c34 7 48 31
17 31 -11 0 -23 4 -26 10 -3 6 1 7 10 4 8 -3 27 -3 41 0 20 5 24 10 15 19 -16
16 -14 27 4 21 10 -4 15 0 15 11 0 9 4 14 9 11 5 -3 9 -17 9 -30z m37 14 c3
-5 2 -10 -4 -10 -5 0 -13 5 -16 10 -3 6 -2 10 4 10 5 0 13 -4 16 -10z m12 -46
c-2 -3 -19 -9 -36 -14 -28 -8 -31 -7 -21 5 7 8 21 15 31 15 11 0 19 6 20 13 0
9 2 9 6 -1 3 -7 3 -15 0 -18z m7 -16 l-19 -23 26 23 c30 26 48 28 75 7 18 -14
17 -14 -13 -9 -25 5 -34 2 -39 -10 -7 -17 -39 -22 -49 -6 -3 5 2 18 12 28 25
26 31 17 7 -10z m-31 -44 c-3 -7 -9 -11 -14 -8 -5 3 -6 10 -3 16 5 7 1 9 -9 5
-10 -3 -17 -2 -17 2 0 14 24 19 37 9 6 -5 9 -16 6 -24z m-65 -23 c-14 -23 -50
-41 -81 -41 -16 0 -11 6 19 19 23 10 45 24 48 30 4 6 11 11 17 11 5 0 4 -9 -3
-19z m27 -11 c-10 -11 -20 -18 -23 -15 -7 6 18 35 31 35 5 0 2 -9 -8 -20z m35
-17 c0 -20 -3 -24 -11 -16 -7 7 -9 19 -6 27 10 24 17 19 17 -11z m-30 -37
c-14 -14 -24 0 -16 21 6 15 8 15 16 3 6 -9 5 -19 0 -24z"/>
<path d="M503 1890 c-27 -11 -27 -12 -7 -52 9 -17 14 -41 11 -54 -2 -13 2 -29
9 -35 8 -6 14 -22 14 -35 0 -15 6 -24 15 -24 8 0 15 5 15 11 0 5 -4 7 -10 4
-6 -3 -10 5 -10 19 0 14 -5 28 -11 31 -6 4 -8 14 -5 22 3 8 -1 27 -9 43 -21
40 -19 57 7 63 17 5 29 -2 50 -26 34 -40 34 -41 2 -55 -21 -10 -25 -18 -22
-49 2 -27 8 -39 21 -41 9 -2 17 1 17 7 0 6 -7 11 -16 11 -11 0 -14 8 -12 28 2
15 8 26 16 25 6 -2 12 1 12 6 0 5 6 11 13 14 7 3 13 -6 14 -22 5 -47 8 -57 31
-85 12 -16 22 -34 22 -40 0 -6 -8 1 -18 16 -14 21 -21 24 -35 17 -28 -16 -57
-19 -81 -8 -17 8 -30 8 -46 -1 -12 -6 -19 -14 -16 -17 3 -3 12 0 21 7 13 11
14 10 9 -4 -5 -13 -14 -16 -30 -12 -14 4 -24 2 -24 -4 0 -17 62 -11 77 8 12
14 14 14 10 1 -3 -9 1 -16 9 -16 8 0 14 4 14 9 0 4 5 8 11 8 8 0 8 -5 -1 -15
-9 -11 -34 -15 -93 -15 l-80 0 6 -222 c4 -170 9 -236 22 -278 44 -141 139
-260 251 -312 57 -27 67 -29 99 -18 48 16 134 74 167 113 26 30 27 31 28 10 0
-18 6 -23 25 -23 22 0 25 4 24 33 -1 30 -1 31 -9 7 -7 -21 -8 -22 -10 -5 -1
19 -2 19 -9 1 -6 -16 -9 -17 -13 -4 -4 8 7 35 23 59 16 24 41 80 56 124 25 75
27 95 31 298 l4 217 -104 0 c-56 1 -172 1 -256 0 l-154 -1 21 22 c17 18 24 20
34 10 10 -10 8 -11 -5 -6 -11 4 -18 2 -18 -4 0 -6 17 -11 40 -11 22 0 40 3 40
6 0 3 -11 24 -24 47 -14 23 -27 57 -29 74 -6 41 -73 133 -95 132 -10 0 -27 -4
-39 -9z m567 -312 c0 -36 -2 -38 -30 -38 -16 0 -30 -4 -30 -10 0 -5 11 -10 24
-10 13 0 27 -7 30 -16 10 -27 7 -126 -4 -119 -5 3 -10 1 -10 -4 0 -6 5 -11 10
-11 6 0 10 -8 10 -17 0 -10 -4 -14 -8 -8 -4 6 -17 19 -29 29 l-23 19 0 -31 c0
-18 4 -32 10 -32 5 0 6 8 3 17 -6 14 -3 14 21 -3 27 -19 27 -21 22 -99 -2 -44
-9 -91 -14 -104 -7 -21 -10 -22 -24 -8 -14 14 -18 14 -34 2 -18 -14 -17 -14 8
-15 15 0 30 -5 33 -10 8 -14 -50 -127 -88 -170 -43 -50 -105 -95 -159 -119
l-46 -19 -59 27 c-81 39 -160 120 -204 212 -44 90 -53 123 -39 149 6 12 7 20
1 20 -5 0 -12 -6 -14 -12 -3 -7 -6 4 -6 25 -1 21 4 37 10 37 6 0 9 -7 5 -15
-4 -11 1 -15 19 -15 14 0 25 5 25 11 0 5 -5 7 -11 4 -6 -4 -13 3 -16 15 -3 12
-11 19 -18 16 -8 -3 -15 1 -18 7 -3 9 5 12 29 9 21 -3 34 0 34 7 0 6 -13 11
-30 11 -16 0 -30 4 -30 9 0 12 37 24 50 16 5 -3 10 1 10 9 0 10 -6 13 -17 10
-17 -5 -17 -5 0 6 9 6 17 16 17 22 0 9 -3 9 -11 1 -6 -6 -18 -9 -25 -6 -8 3
-18 -5 -23 -18 -10 -23 -10 -23 -10 -2 -1 28 27 56 50 50 11 -3 19 0 19 8 0
10 -9 11 -35 5 -19 -4 -35 -7 -35 -5 0 13 43 46 55 41 11 -4 15 1 14 17 0 12
-3 16 -6 10 -7 -18 -33 -16 -33 3 0 9 -5 12 -12 8 -7 -4 -8 -3 -4 4 4 7 3 12
-2 12 -5 0 -7 11 -4 25 5 27 16 32 28 14 3 -6 0 -15 -7 -20 -7 -4 -10 -11 -7
-14 4 -4 16 0 28 8 21 15 21 15 -9 37 -17 12 -31 29 -31 39 0 17 18 18 325 17
l325 -1 0 -37z m-640 -107 c0 -6 -4 -13 -10 -16 -5 -3 -10 1 -10 9 0 9 5 16
10 16 6 0 10 -4 10 -9z"/>
<path d="M495 1580 c0 -17 5 -30 12 -30 7 0 10 7 7 15 -4 11 0 15 16 15 29 0
20 24 -11 28 -21 2 -24 -1 -24 -28z"/>
<path d="M582 1601 c-18 -11 -12 -45 8 -48 27 -5 46 14 34 34 -13 21 -25 25
-42 14z m28 -27 c0 -8 -4 -14 -10 -14 -5 0 -10 9 -10 21 0 11 5 17 10 14 6 -3
10 -13 10 -21z"/>
<path d="M655 1580 c0 -17 5 -30 12 -30 8 0 10 7 6 18 -6 15 -5 15 15 -2 21
-18 21 -18 19 10 -2 23 -8 30 -27 32 -22 2 -25 -1 -25 -28z"/>
<path d="M822 1582 c-15 -31 -7 -42 12 -17 12 16 16 17 30 6 13 -11 19 -11 31
-1 12 10 15 10 15 -4 0 -9 8 -16 20 -16 20 0 20 1 3 25 -20 27 -29 30 -38 15
-4 -7 -11 -7 -18 -2 -28 21 -43 19 -55 -6z"/>
<path d="M970 1580 c0 -18 5 -30 13 -30 9 0 12 10 9 30 -2 17 -8 30 -13 30 -5
0 -9 -13 -9 -30z"/>
<path d="M492 1363 c4 -182 3 -178 53 -296 6 -14 4 -16 -11 -10 -17 6 -18 5
-4 -11 8 -11 16 -14 18 -7 4 12 22 5 22 -8 0 -7 -7 -9 -49 -13 -19 -2 -19 -4
-3 -31 9 -16 22 -33 29 -38 16 -14 55 11 48 31 -4 8 9 1 27 -17 18 -17 51 -42
73 -55 38 -22 59 -58 35 -58 -6 0 -8 -4 -5 -10 3 -5 1 -10 -5 -10 -6 0 -8 10
-4 25 4 17 2 25 -7 25 -7 0 -9 -3 -6 -7 4 -3 2 -13 -5 -20 -9 -11 -9 -17 3
-24 23 -14 35 -10 47 16 9 19 9 25 -1 25 -6 0 -3 7 7 15 24 18 42 20 28 2 -9
-10 -4 -16 18 -24 16 -6 31 -8 34 -5 11 10 6 63 -4 57 -6 -4 -8 -10 -5 -15 3
-4 -1 -10 -9 -13 -34 -13 -19 21 23 52 25 19 38 25 29 14 -22 -25 -23 -40 -2
-22 14 11 18 11 29 -4 6 -9 15 -14 18 -11 4 4 -2 18 -13 31 l-19 24 40 61 c62
96 71 139 77 336 l4 172 -257 0 -257 0 4 -177z m498 37 c0 -71 -3 -130 -6
-130 -3 0 -17 9 -31 20 -14 11 -30 17 -35 14 -5 -3 -12 2 -15 12 -10 38 -57
63 -124 68 -41 3 -67 10 -75 20 -6 9 -17 16 -24 16 -8 0 -10 8 -6 25 7 28 4
30 -23 13 -15 -9 -23 -9 -36 2 -8 7 -14 18 -12 24 3 6 -2 19 -11 29 -14 16 -4
17 191 17 l207 0 0 -130z m-454 63 c3 3 0 15 -6 27 -6 12 -9 24 -6 27 3 3 10
-7 16 -23 17 -48 26 -59 51 -62 25 -3 149 -60 149 -68 0 -3 -9 -22 -20 -43
-17 -34 -17 -41 -5 -57 8 -11 15 -25 15 -33 0 -8 6 -22 14 -30 11 -13 12 -27
5 -66 -31 -164 -31 -165 -14 -191 14 -22 43 -26 30 -4 -7 11 27 90 37 90 5 0
8 7 8 16 0 8 4 13 8 10 5 -3 29 14 54 38 24 24 54 49 66 55 12 7 22 21 22 34
0 12 5 29 11 37 22 31 -3 -63 -34 -129 -33 -72 -113 -159 -165 -180 -29 -12
-36 -11 -75 13 -76 44 -140 132 -172 236 -12 38 -18 103 -21 210 -4 146 -3
153 12 121 8 -18 17 -31 20 -28z m315 -126 c10 -6 22 -21 28 -34 6 -13 19 -23
29 -23 9 0 27 -7 39 -15 21 -14 21 -15 3 -49 -16 -32 -125 -136 -143 -136 -4
0 -16 -15 -27 -32 -19 -32 -20 -32 -20 -8 1 14 7 52 15 84 14 57 13 61 -11
101 -28 49 -30 65 -8 106 13 27 19 30 47 23 17 -3 39 -11 48 -17z m-267 -351
c-4 -9 -13 -15 -20 -12 -9 3 -11 -1 -8 -12 5 -14 3 -13 -10 2 -21 26 -20 35 7
45 27 11 40 1 31 -23z"/>
<path d="M705 1460 c-3 -5 1 -11 9 -11 29 -3 34 -4 43 -12 4 -5 9 -13 9 -18 1
-5 2 -12 3 -15 0 -3 8 2 17 11 9 9 15 17 13 19 -47 36 -82 45 -94 26z"/>
<path d="M825 1420 c-3 -5 3 -10 14 -10 12 0 21 5 21 10 0 6 -6 10 -14 10 -8
0 -18 -4 -21 -10z"/>
<path d="M875 1410 c3 -5 11 -10 16 -10 6 0 7 5 4 10 -3 6 -11 10 -16 10 -6 0
-7 -4 -4 -10z"/>
<path d="M1017 1503 c-11 -10 -8 -55 3 -48 6 3 10 -1 10 -10 0 -9 -4 -13 -10
-10 -5 3 -10 -3 -10 -15 0 -17 3 -19 19 -10 32 17 36 32 13 48 -29 19 -30 46
-1 37 15 -5 19 -4 15 4 -8 12 -29 15 -39 4z"/>
<path d="M1010 1310 c0 -5 5 -10 10 -10 6 0 10 -7 10 -16 0 -8 -4 -12 -10 -9
-5 3 -10 -3 -10 -15 0 -20 1 -20 25 -4 14 9 25 20 25 24 0 4 -11 15 -25 24
-14 9 -25 12 -25 6z"/>
<path d="M452 1195 c-14 -31 -15 -35 -4 -35 5 0 14 10 21 23 l12 22 -5 -22
c-2 -12 2 -27 10 -34 8 -6 11 -16 8 -21 -4 -6 -10 -5 -15 3 -7 12 -9 11 -10
-1 0 -10 -3 -8 -9 5 -8 19 -9 19 -9 -2 -1 -27 9 -34 37 -26 25 6 28 25 7 46
-8 8 -12 17 -9 20 8 7 -5 47 -15 47 -4 0 -13 -11 -19 -25z"/>
<path d="M996 1174 c-3 -8 0 -14 7 -15 7 0 20 -2 30 -4 25 -5 21 8 -7 21 -20
9 -26 9 -30 -2z"/>
<path d="M974 1083 c5 -17 3 -23 -7 -23 -8 0 -18 -7 -21 -16 -5 -12 -2 -15 10
-10 8 3 24 6 35 6 25 0 24 22 -2 46 -21 19 -22 19 -15 -3z"/>
<path d="M914 999 c-18 -20 -18 -21 1 -35 22 -16 32 -18 40 -5 3 5 -4 12 -15
16 -11 3 -20 11 -20 16 0 13 18 11 22 -2 2 -7 10 -10 17 -8 9 3 7 9 -7 22 -18
16 -20 16 -38 -4z"/>
<path d="M630 901 c0 -33 2 -34 38 -25 26 7 30 26 5 22 -10 -2 -18 3 -18 11 0
8 -6 16 -12 19 -9 2 -13 -7 -13 -27z"/>
<path d="M447 1855 c-8 -8 -17 -12 -20 -9 -3 3 -15 0 -27 -6 -23 -12 -25 -50
-2 -58 7 -2 12 0 11 5 -1 4 3 19 9 33 8 18 11 20 11 8 1 -10 7 -18 14 -18 7
-1 4 -7 -7 -15 -18 -13 -17 -14 8 -21 54 -13 69 12 41 66 -18 35 -19 35 -38
15z m31 -30 c17 -37 15 -45 -9 -45 -17 0 -19 3 -10 14 10 11 9 16 -5 24 -9 5
-14 14 -10 21 11 17 22 13 34 -14z m-68 -5 c0 -5 -5 -10 -11 -10 -5 0 -7 5 -4
10 3 6 8 10 11 10 2 0 4 -4 4 -10z"/>
<path d="M525 1851 c-3 -5 -1 -12 5 -16 5 -3 10 1 10 9 0 18 -6 21 -15 7z"/>
<path d="M2730 1730 l0 -120 50 0 50 0 0 120 0 120 -50 0 -50 0 0 -120z m70 5
c0 -78 -2 -85 -20 -85 -18 0 -20 7 -20 85 0 78 2 85 20 85 18 0 20 -7 20 -85z"/>
<path d="M595 1758 c3 -13 7 -33 8 -45 0 -12 5 -19 9 -17 4 3 6 15 4 27 -3 12
-5 30 -5 40 -1 9 -6 17 -11 17 -6 0 -8 -10 -5 -22z"/>
<path d="M570 1756 c0 -9 5 -16 10 -16 6 0 10 4 10 9 0 6 -4 13 -10 16 -5 3
-10 -1 -10 -9z"/>
<path d="M52 1668 c-16 -16 -16 -42 1 -31 22 14 36 12 30 -5 -5 -13 -3 -14 6
-6 16 15 10 48 -9 52 -9 1 -21 -3 -28 -10z"/>
<path d="M1440 1630 c0 -22 -4 -40 -10 -40 -5 0 -10 16 -10 35 0 19 -4 35 -10
35 -15 0 -12 -66 4 -79 26 -22 46 -2 46 45 0 24 -4 44 -10 44 -5 0 -10 -18
-10 -40z"/>
<path d="M1377 1647 c-4 -11 -5 -23 -1 -28 3 -5 0 -17 -6 -26 -9 -16 -10 -15
-8 6 2 13 -3 26 -9 28 -18 6 -16 -29 1 -53 22 -28 38 -6 34 47 -2 31 -5 39
-11 26z"/>
<path d="M117 1643 c-4 -3 -7 -13 -7 -22 0 -13 2 -13 9 -2 7 11 11 10 20 -5 9
-17 10 -16 11 9 0 25 -17 36 -33 20z"/>
<path d="M166 1613 c-4 -10 -4 -14 0 -10 4 4 13 2 21 -4 10 -9 13 -7 13 10 0
25 -25 28 -34 4z"/>
<path d="M34 1605 c-4 -9 -7 -48 -8 -88 -1 -70 0 -72 24 -72 21 0 26 6 32 40
10 57 9 107 -1 101 -5 -4 -11 -2 -13 4 -1 5 -3 -20 -3 -57 0 -48 -4 -67 -14
-71 -12 -4 -13 9 -8 77 6 78 3 99 -9 66z"/>
<path d="M216 1605 c-9 -23 -8 -24 14 -22 12 1 19 7 18 16 -4 21 -24 25 -32 6z"/>
<path d="M1100 1607 c0 -9 5 -19 11 -22 26 -17 32 -95 7 -95 -6 0 -8 7 -4 15
3 8 1 15 -5 15 -14 0 -7 -42 9 -48 6 -2 17 7 22 20 8 18 9 13 5 -25 -3 -30 -1
-46 5 -42 16 10 12 104 -6 141 -20 41 -44 64 -44 41z"/>
<path d="M1319 1598 c0 -22 -1 -22 -9 -3 -8 18 -9 17 -9 -7 -1 -19 4 -28 14
-28 10 0 15 10 15 30 0 35 -10 41 -11 8z"/>
<path d="M350 1568 c-24 -52 -26 -139 -5 -223 21 -87 20 -118 -4 -110 -27 8
-44 -17 -27 -40 9 -13 20 -16 39 -11 47 11 51 36 22 140 -31 115 -33 198 -5
244 23 37 24 42 10 42 -6 0 -20 -19 -30 -42z"/>
<path d="M260 1591 c0 -5 7 -11 15 -15 9 -3 15 0 15 9 0 8 -7 15 -15 15 -8 0
-15 -4 -15 -9z"/>
<path d="M300 1578 c0 -8 7 -15 15 -15 18 0 15 19 -3 25 -7 2 -12 -3 -12 -10z"/>
<path d="M1261 1572 c-1 -28 23 -25 27 4 2 14 1 16 -6 5 -8 -11 -10 -11 -15 0
-3 8 -6 4 -6 -9z"/>
<path d="M100 1549 c0 -19 5 -41 10 -49 7 -10 8 -1 4 30 -8 56 -14 64 -14 19z"/>
<path d="M129 1573 c-1 -4 0 -16 1 -27 1 -10 -1 -35 -5 -55 l-7 -36 -14 25
-13 25 -1 -27 c0 -15 5 -30 11 -34 19 -11 34 15 40 74 l6 57 2 -57 c1 -57 16
-83 32 -57 10 17 12 115 2 105 -4 -4 -6 -22 -4 -41 1 -19 -1 -40 -6 -47 -5 -8
-10 8 -13 41 -3 31 -10 56 -17 59 -7 2 -14 0 -14 -5z"/>
<path d="M1202 1573 c-6 -2 -10 -9 -6 -14 3 -5 1 -9 -5 -9 -5 0 -12 6 -14 13
-4 9 -6 9 -6 -1 -1 -18 29 -28 39 -12 6 10 8 10 12 -1 5 -16 28 -3 28 17 0 14
-23 17 -48 7z"/>
<path d="M375 1561 c-3 -5 -1 -12 5 -16 5 -3 10 1 10 9 0 18 -6 21 -15 7z"/>
<path d="M1100 1554 c0 -8 5 -12 10 -9 6 4 8 11 5 16 -9 14 -15 11 -15 -7z"/>
<path d="M53 1520 c0 -25 2 -35 4 -22 2 12 2 32 0 45 -2 12 -4 2 -4 -23z"/>
<path d="M202 1518 c-1 -26 2 -49 7 -52 13 -8 29 15 34 49 4 27 4 27 6 -7 1
-27 6 -38 16 -38 17 0 20 25 5 35 -5 3 -10 15 -10 26 0 12 -7 19 -19 19 -14 0
-18 -5 -14 -20 3 -11 2 -28 -3 -37 -6 -14 -9 -7 -14 27 l-7 45 -1 -47z"/>
<path d="M1450 1531 c0 -17 2 -31 4 -31 8 0 13 51 5 56 -5 3 -9 -9 -9 -25z"/>
<path d="M1382 1525 c0 -16 2 -22 5 -12 2 9 2 23 0 30 -3 6 -5 -1 -5 -18z"/>
<path d="M1400 1530 c0 -13 7 -20 20 -20 11 0 20 5 20 11 0 5 -4 7 -10 4 -5
-3 -10 1 -10 9 0 9 -4 16 -10 16 -5 0 -10 -9 -10 -20z"/>
<path d="M1845 1539 c-58 -19 -90 -40 -114 -74 l-24 -35 -226 0 -227 0 -42
-43 -42 -43 2 -240 3 -239 138 -3 137 -3 0 -134 0 -135 -124 0 c-100 0 -128
-3 -140 -16 -14 -13 -16 -52 -16 -268 0 -232 1 -254 18 -269 17 -16 93 -17
891 -17 582 0 879 3 892 10 18 10 19 24 19 273 0 191 -3 266 -12 275 -8 8 -58
12 -160 12 l-148 0 0 135 0 135 124 0 124 0 36 44 36 44 0 241 0 241 -244 0
-245 0 -33 46 c-53 74 -54 74 -340 73 -139 0 -266 -5 -283 -10z m546 -29 c15
-9 259 -321 259 -332 0 -2 -232 -3 -515 -3 -283 0 -515 1 -515 2 0 11 227 317
243 328 18 12 67 15 265 15 149 0 251 -4 263 -10z m-664 -135 c-134 -189 -156
-225 -156 -271 -1 -22 4 -45 11 -52 9 -9 4 -12 -23 -12 -34 0 -35 1 -37 40 -3
43 4 57 108 199 33 45 67 95 74 110 18 32 82 101 96 101 5 0 -27 -52 -73 -115z
m-58 3 c-13 -18 -52 -72 -86 -120 -35 -48 -63 -92 -63 -97 0 -5 -7 -11 -15
-15 -19 -7 -21 -106 -3 -124 7 -7 43 -12 90 -12 l78 0 0 -264 0 -264 -42 -15
-43 -14 0 -74 0 -74 160 -3 c116 -2 172 1 200 11 l40 14 3 69 c3 74 -9 97 -48
87 -19 -5 -20 2 -20 261 l0 266 180 0 180 0 -2 -266 -3 -266 -35 -12 -35 -11
0 -75 0 -75 162 -3 c125 -2 171 1 198 12 l35 15 0 74 c0 79 -7 91 -49 80 -21
-5 -21 -4 -21 259 l0 265 68 6 c37 2 79 10 95 16 26 10 27 14 27 75 0 53 -3
66 -17 71 -10 3 -41 38 -70 78 -28 40 -66 91 -83 115 l-32 42 221 0 221 0 0
-240 0 -240 -165 0 -165 0 0 -185 0 -185 165 0 165 0 0 -227 0 -228 -840 0
-840 0 0 228 0 227 128 0 127 0 2 185 2 185 -132 0 -132 0 3 240 3 240 205 0
205 0 -22 -32z m-402 -460 c14 -15 34 -18 129 -18 l112 0 1 -155 c2 -128 -1
-155 -12 -155 -18 0 -29 79 -26 185 3 105 1 106 -147 108 l-119 2 -3 224 c-2
203 -1 226 15 244 17 18 18 11 26 -199 7 -176 12 -222 24 -236z m1423 187 l0
-45 -550 0 -550 0 0 45 0 45 550 0 550 0 0 -45z m-800 -222 l0 -153 -60 0 -60
0 0 153 0 152 60 0 60 0 0 -152z m610 0 l0 -153 -60 0 -60 0 0 153 0 152 60 0
60 0 0 -152z m-758 -5 c2 -84 2 -208 0 -275 -3 -114 -5 -123 -23 -123 -18 0
-19 8 -20 148 -1 81 -4 204 -7 275 l-7 127 27 0 27 0 3 -152z m607 5 c0 -82 0
-152 1 -158 1 -5 2 -63 1 -127 -1 -108 -3 -118 -19 -118 -18 0 -19 17 -26 267
-5 192 -10 270 -19 275 -7 4 4 8 26 8 l38 0 -2 -147z m558 11 c-7 -8 -238 -6
-245 1 -3 3 52 5 123 5 71 0 125 -3 122 -6z m-1017 -299 l0 -115 -60 0 -60 0
0 115 0 115 60 0 60 0 0 -115z m610 0 l0 -115 -60 0 -60 0 0 115 0 115 60 0
60 0 0 -115z m-1252 -266 c2 -178 5 -229 16 -238 10 -9 242 -12 860 -12 779 0
909 -4 824 -24 -13 -3 -410 -4 -883 -3 l-860 3 -3 253 -2 253 22 -3 23 -3 3
-226z m1322 70 l0 -49 -135 0 -135 0 0 53 0 52 135 -3 135 -3 0 -50z m-610 1
l0 -50 -140 0 -140 0 0 50 0 50 140 0 140 0 0 -50z m322 -57 c8 -10 3 -13 -21
-13 -31 0 -31 0 -31 54 0 44 3 55 18 58 14 3 18 -5 20 -42 2 -24 8 -50 14 -57z
m-620 40 c2 -32 3 -60 1 -62 -1 -2 -14 -1 -28 3 -22 6 -25 11 -25 55 0 52 4
61 31 61 14 0 18 -11 21 -57z"/>
<path d="M280 1529 c0 -17 20 -49 30 -49 6 0 10 12 9 28 l-1 27 -8 -25 -8 -25
-1 28 c-1 25 -21 41 -21 16z"/>
<path d="M1302 1520 c0 -14 2 -19 5 -12 2 6 2 18 0 25 -3 6 -5 1 -5 -13z"/>
<path d="M1326 1531 c-4 -7 -5 -15 -2 -18 9 -9 19 4 14 18 -4 11 -6 11 -12 0z"/>
<path d="M1350 1526 c0 -9 5 -16 10 -16 6 0 10 4 10 9 0 6 -4 13 -10 16 -5 3
-10 -1 -10 -9z"/>
<path d="M1201 1510 c-2 -23 -3 -24 -11 -5 -7 16 -9 14 -9 -15 -1 -31 0 -33
15 -18 9 9 14 26 11 39 l-4 24 -2 -25z"/>
<path d="M1222 1510 c0 -14 2 -19 5 -12 2 6 2 18 0 25 -3 6 -5 1 -5 -13z"/>
<path d="M1241 1514 c0 -11 3 -14 6 -6 3 7 2 16 -1 19 -3 4 -6 -2 -5 -13z"/>
<path d="M1261 1514 c0 -11 3 -14 6 -6 3 7 2 16 -1 19 -3 4 -6 -2 -5 -13z"/>
<path d="M368 1513 c7 -3 16 -2 19 1 4 3 -2 6 -13 5 -11 0 -14 -3 -6 -6z"/>
<path d="M360 1490 c0 -5 7 -10 15 -10 8 0 15 5 15 10 0 6 -7 10 -15 10 -8 0
-15 -4 -15 -10z"/>
<path d="M361 1443 c0 -25 1 -25 8 -8 8 19 9 18 13 -5 5 -21 5 -20 7 8 1 22
-3 32 -14 32 -10 0 -15 -9 -14 -27z"/>
<path d="M288 1421 c-4 -24 -12 -47 -18 -51 -14 -9 1 -74 24 -105 22 -30 28
-13 11 28 -8 20 -15 53 -14 74 l1 38 8 -33 c4 -19 13 -39 20 -45 10 -10 11 -7
6 13 -3 14 -6 48 -7 75 -1 43 -2 46 -9 20 l-7 -30 -4 30 c-4 27 -5 26 -11 -14z"/>
<path d="M1101 1435 c0 -11 3 -14 6 -7 2 6 8 10 13 7 4 -3 10 2 13 9 4 10 -1
14 -14 13 -12 -1 -19 -8 -18 -22z"/>
<path d="M249 1423 l-1 -28 -9 25 c-5 16 -7 2 -3 -42 4 -46 2 -68 -5 -68 -7 0
-12 27 -13 68 l-2 67 -3 -58 c-5 -71 18 -156 48 -183 21 -18 22 -18 16 -1 -16
42 -27 152 -21 198 4 27 4 49 0 49 -3 0 -6 -12 -7 -27z"/>
<path d="M272 1430 c0 -14 2 -19 5 -12 2 6 2 18 0 25 -3 6 -5 1 -5 -13z"/>
<path d="M165 1340 c2 -62 8 -100 24 -135 12 -26 23 -46 25 -44 2 2 -2 58 -10
124 -8 66 -12 126 -9 133 2 6 0 12 -6 12 -7 0 -10 -26 -7 -74 4 -91 -5 -89
-13 2 -6 63 -7 61 -4 -18z"/>
<path d="M103 1308 c4 -87 11 -128 27 -167 21 -48 48 -73 35 -32 -3 11 -7 53
-9 95 -1 42 -6 79 -10 83 -5 5 -6 -23 -3 -61 3 -48 2 -65 -5 -53 -5 10 -12 67
-15 128 -3 60 -11 112 -16 116 -7 4 -8 -33 -4 -109z"/>
<path d="M130 1359 c0 -39 4 -58 11 -54 11 8 9 115 -3 115 -5 0 -8 -27 -8 -61z"/>
<path d="M1110 1410 c-8 -5 -11 -12 -7 -16 4 -4 13 -2 19 4 6 6 10 14 7 16 -2
3 -11 1 -19 -4z"/>
<path d="M20 1340 c1 -138 37 -307 76 -356 14 -17 15 -14 9 41 -10 92 -18 211
-19 302 -1 64 -4 83 -15 83 -12 0 -13 -26 -9 -152 4 -109 3 -146 -5 -128 -5
14 -12 79 -14 145 -6 134 -23 184 -23 65z"/>
<path d="M377 1383 c-3 -5 -1 -17 4 -28 7 -17 8 -17 8 8 1 27 -4 34 -12 20z"/>
<path d="M297 1139 c-21 -16 -30 -18 -47 -9 -23 12 -60 5 -60 -12 0 -5 7 -8
15 -4 8 3 15 1 15 -3 0 -5 -7 -11 -15 -15 -26 -10 -16 -23 15 -18 24 3 32 0
41 -21 8 -18 8 -30 0 -46 -15 -28 2 -28 30 0 15 15 20 29 16 52 -4 27 0 37 31
64 37 32 37 32 11 33 -15 0 -38 -9 -52 -21z"/>
<path d="M380 1126 c0 -8 5 -18 10 -21 6 -3 10 3 10 14 0 12 -4 21 -10 21 -5
0 -10 -6 -10 -14z"/>
<path d="M1070 1105 c0 -8 5 -15 10 -15 6 0 10 7 10 15 0 8 -4 15 -10 15 -5 0
-10 -7 -10 -15z"/>
<path d="M350 1075 c0 -13 68 -40 78 -30 8 7 -9 25 -19 20 -5 -4 -9 -1 -9 5 0
7 -7 10 -15 6 -8 -3 -15 -1 -15 4 0 6 -4 10 -10 10 -5 0 -10 -7 -10 -15z"/>
<path d="M1060 1068 c0 -11 12 -10 30 2 12 7 10 9 -8 7 -12 0 -22 -5 -22 -9z"/>
<path d="M350 1040 c0 -9 69 -24 76 -17 3 2 -13 9 -36 15 -22 5 -40 6 -40 2z"/>
<path d="M1050 1046 c0 -2 9 -6 20 -9 11 -3 20 -1 20 4 0 5 -9 9 -20 9 -11 0
-20 -2 -20 -4z"/>
<path d="M1037 1024 c-4 -4 -7 -17 -7 -28 0 -16 2 -18 9 -7 7 11 9 11 14 0 4
-9 6 -7 7 6 1 20 1 20 11 0 8 -18 8 -18 6 5 -2 24 -26 38 -40 24z"/>
<path d="M330 1009 c0 -5 5 -7 10 -4 6 3 10 8 10 11 0 2 -4 4 -10 4 -5 0 -10
-5 -10 -11z"/>
<path d="M400 1000 c0 -5 5 -10 10 -10 6 0 10 5 10 10 0 6 -4 10 -10 10 -5 0
-10 -4 -10 -10z"/>
<path d="M445 990 c4 -6 11 -8 16 -5 14 9 11 15 -7 15 -8 0 -12 -5 -9 -10z"/>
<path d="M310 951 c0 -32 23 -47 54 -35 17 7 23 64 6 64 -5 0 -10 -11 -10 -25
0 -16 -6 -25 -15 -25 -9 0 -15 9 -15 25 0 14 -4 25 -10 25 -5 0 -10 -13 -10
-29z"/>
<path d="M103 954 c-33 -14 -41 -28 -24 -38 9 -6 68 40 61 47 -3 2 -20 -2 -37
-9z"/>
<path d="M341 954 c0 -11 3 -14 6 -6 3 7 2 16 -1 19 -3 4 -6 -2 -5 -13z"/>
<path d="M392 938 c2 -28 7 -33 28 -33 21 0 26 5 28 34 2 21 0 31 -7 26 -6 -3
-11 -15 -11 -26 0 -22 -21 -21 -28 1 -3 7 0 10 7 6 7 -5 9 -1 5 8 -11 28 -25
17 -22 -16z"/>
<path d="M1037 963 c-12 -19 11 -65 31 -61 12 2 17 13 18 38 1 26 1 28 -3 8
-2 -16 -10 -28 -18 -28 -8 0 -15 12 -17 28 -2 16 -6 22 -11 15z"/>
<path d="M462 933 c2 -20 9 -29 26 -31 17 -3 22 1 22 20 0 17 -3 19 -9 9 -11
-17 -32 -5 -24 14 3 8 0 15 -7 15 -6 0 -10 -11 -8 -27z"/>
<path d="M1061 944 c0 -11 3 -14 6 -6 3 7 2 16 -1 19 -3 4 -6 -2 -5 -13z"/>
<path d="M15 937 c-3 -9 -7 -23 -9 -31 -3 -8 2 -20 9 -26 8 -7 12 -17 8 -24
-17 -27 15 -106 43 -106 7 0 17 -6 21 -13 4 -8 17 -17 28 -21 19 -7 19 -8 -4
-27 -16 -13 -24 -30 -24 -49 0 -16 -7 -32 -15 -35 -8 -3 -12 -12 -8 -21 4 -9
1 -23 -5 -30 -9 -11 -8 -14 5 -14 9 0 16 4 16 10 0 5 7 7 15 4 8 -4 21 -1 28
4 8 7 27 8 47 4 41 -9 108 -8 117 2 12 12 54 6 59 -9 8 -19 61 -45 80 -38 8 3
22 -1 31 -8 13 -11 17 -11 20 -1 3 6 11 12 19 12 8 0 29 7 45 16 41 21 45 13
13 -25 -18 -21 -24 -37 -18 -49 6 -15 7 -15 11 -1 4 18 60 32 69 17 10 -15 22
-8 31 17 8 24 9 24 37 10 15 -8 37 -15 48 -15 17 0 18 3 8 15 -7 9 -8 15 -2
15 5 0 17 -11 25 -24 14 -20 24 -24 71 -25 30 0 58 4 61 9 4 6 -3 10 -14 10
-27 0 -26 7 2 31 28 23 45 23 129 2 53 -14 70 -15 80 -5 9 9 4 12 -27 13 -53
1 -91 13 -88 27 2 7 -2 12 -7 12 -6 0 -10 -4 -10 -10 0 -5 -13 -10 -30 -10
-25 0 -30 4 -30 24 0 25 39 44 51 25 4 -7 16 -2 32 13 34 31 179 65 162 37 -8
-12 6 -11 25 1 13 8 12 10 -4 10 -30 0 -3 24 68 59 57 28 92 61 66 61 -6 0
-10 -4 -10 -9 0 -6 -29 -24 -64 -40 -35 -17 -69 -38 -76 -46 -19 -22 -40 -18
-40 8 0 12 9 40 20 62 22 42 19 60 -5 29 -14 -18 -19 -34 -30 -90 -3 -14 -18
-25 -47 -34 -24 -8 -47 -17 -53 -21 -5 -3 -21 -10 -34 -14 -37 -11 -16 13 26
30 47 20 78 54 81 90 1 16 9 33 17 38 18 10 20 51 2 65 -15 13 -57 5 -58 -12
0 -6 -24 -22 -52 -36 -39 -20 -55 -33 -62 -58 l-11 -31 -38 23 c-36 22 -41 22
-75 9 -34 -13 -42 -12 -96 8 -32 12 -72 36 -89 54 -17 18 -39 35 -50 39 -26 9
-93 -11 -105 -32 -6 -9 -11 -12 -11 -6 0 7 -21 28 -46 49 l-45 38 -35 -34 -35
-34 -19 25 c-21 27 -26 55 -10 65 31 19 -9 40 -45 23 -19 -8 -28 -8 -39 2 -13
10 -21 7 -47 -19 -17 -17 -33 -31 -35 -31 -3 0 -18 14 -34 32 -24 26 -30 29
-35 15z m129 -32 c-17 -26 -34 -33 -34 -14 0 12 29 38 43 39 4 0 0 -11 -9 -25z
m76 0 c7 -8 9 -22 6 -32 -6 -15 -8 -14 -22 6 -11 15 -22 20 -37 16 -21 -6 -22
-6 -3 9 25 20 40 20 56 1z m-166 -4 c3 -5 -1 -11 -9 -15 -15 -6 -29 7 -18 18
9 9 21 8 27 -3z m77 -64 c45 -72 51 -89 46 -123 -3 -19 -2 -34 4 -34 5 0 9 5
9 10 0 6 13 10 29 10 34 0 121 -66 118 -90 -4 -30 -129 -50 -184 -29 -21 8
-30 7 -38 -4 -12 -16 -35 -11 -35 8 0 7 8 16 17 19 12 5 13 10 5 18 -8 8 -9
15 -1 25 7 7 8 13 3 13 -5 0 2 7 14 16 33 23 27 38 -28 78 -45 32 -50 40 -50
74 0 46 5 52 39 52 20 -1 33 -11 52 -43z m64 32 c4 -5 -1 -19 -11 -30 -18 -20
-18 -20 -38 1 -18 18 -19 22 -6 30 20 13 47 12 55 -1z m219 -54 c31 -30 64
-55 72 -55 8 0 31 -11 50 -23 34 -24 34 -24 14 -42 -16 -15 -22 -15 -35 -5 -9
8 -15 9 -15 2 0 -6 8 -15 17 -21 10 -5 15 -12 11 -16 -8 -8 -48 13 -48 25 0 6
-5 10 -11 10 -5 0 -7 -5 -3 -12 5 -8 0 -9 -16 -5 -13 3 -32 2 -42 -4 -14 -8
-18 -6 -18 7 0 10 -3 14 -7 10 -5 -4 -8 -12 -8 -18 0 -6 -8 -16 -17 -22 -15
-9 -24 -4 -54 27 -20 20 -45 37 -55 37 -11 0 -19 4 -19 9 0 5 -10 7 -21 4 -38
-10 -5 31 66 83 36 26 65 51 65 56 0 18 19 6 74 -47z m-154 4 c0 -4 -15 -18
-33 -32 -33 -25 -34 -25 -45 -6 -13 21 -7 43 9 34 5 -4 9 -1 9 6 0 6 8 18 18
25 14 11 19 10 30 -3 6 -9 12 -20 12 -24z m825 11 c3 -5 -2 -17 -12 -27 -10
-10 -19 -31 -21 -46 -3 -39 -31 -74 -69 -87 -18 -6 -41 -22 -52 -36 -10 -13
-25 -24 -33 -24 -12 0 -10 15 12 76 26 73 49 102 70 89 6 -4 9 -1 8 7 -2 9 6
12 25 11 20 -1 27 3 27 16 0 29 31 44 45 21z m-497 -28 c11 -15 33 -34 49 -42
15 -8 33 -22 40 -30 9 -11 12 -12 13 -2 0 9 5 10 19 2 26 -13 64 -13 95 1 20
9 29 9 41 -1 8 -7 13 -16 10 -20 -7 -12 5 -40 18 -40 7 0 7 4 -1 12 -16 16
-15 28 2 28 21 0 24 -11 14 -48 -8 -31 -11 -32 -43 -26 -26 5 -43 1 -70 -16
l-36 -22 -38 38 c-20 22 -67 57 -104 79 -48 29 -65 44 -61 57 3 9 0 19 -6 23
-5 3 -10 -1 -10 -9 0 -9 -4 -16 -10 -16 -5 0 -10 4 -10 9 0 5 -9 7 -20 4 -14
-4 -20 0 -20 10 0 21 20 31 69 35 33 2 42 -2 59 -26z m22 -117 c7 -9 10 -19 6
-22 -4 -4 -11 -1 -16 6 -12 20 -36 7 -44 -24 -8 -32 10 -57 55 -75 31 -13 38
-42 18 -70 -8 -11 -9 -7 -5 18 3 18 1 32 -4 32 -6 0 -10 -8 -10 -18 0 -24 -19
-42 -44 -42 -20 1 -20 1 2 19 28 24 28 36 -3 73 -29 34 -32 73 -8 100 20 22
36 23 53 3z m0 -35 c10 0 20 6 22 12 3 9 13 7 34 -7 l29 -20 -48 -3 c-49 -3
-82 11 -70 31 5 8 8 7 11 -1 2 -7 12 -12 22 -12z m-131 -1 c26 -8 42 -21 57
-49 l21 -37 -29 -18 c-52 -30 -147 -19 -168 20 -23 42 14 92 69 94 7 1 30 -4
50 -10z m131 -41 c0 -5 8 -8 18 -8 30 0 56 -25 48 -45 -6 -17 -8 -17 -22 3 -8
12 -21 22 -28 22 -16 0 -66 38 -66 50 0 4 11 3 25 -3 14 -7 25 -15 25 -19z
m102 -6 c7 -10 22 -24 33 -30 19 -11 18 -11 -6 -12 -15 0 -29 -7 -33 -15 -10
-26 -23 -16 -18 14 3 21 -2 33 -19 45 l-23 16 26 0 c15 0 33 -8 40 -18z m93 8
c-3 -5 -1 -10 4 -10 6 0 11 5 11 10 0 14 47 12 56 -2 18 -28 14 -67 -8 -82
-21 -15 -24 -14 -49 10 -15 14 -29 24 -31 22 -3 -1 -12 4 -21 13 -15 16 -15
18 6 32 25 18 41 22 32 7z m-17 -74 c15 -8 35 -22 44 -33 16 -18 16 -19 -2
-19 -10 0 -17 4 -14 7 2 4 0 10 -6 14 -5 3 -10 -2 -10 -12 -1 -15 -5 -13 -23
10 -13 15 -32 27 -42 28 -20 0 -20 1 0 9 11 5 21 9 23 9 2 1 15 -5 30 -13z
m-73 -26 c3 -5 2 -10 -4 -10 -5 0 -13 5 -16 10 -3 6 -2 10 4 10 5 0 13 -4 16
-10z"/>
<path d="M230 680 c0 -5 5 -10 11 -10 5 0 7 5 4 10 -3 6 -8 10 -11 10 -2 0 -4
-4 -4 -10z"/>
<path d="M130 640 c0 -11 6 -20 14 -20 9 0 12 7 9 20 -3 11 -9 20 -14 20 -5 0
-9 -9 -9 -20z"/>
<path d="M185 650 c-3 -5 -1 -10 4 -10 6 0 11 5 11 10 0 6 -2 10 -4 10 -3 0
-8 -4 -11 -10z"/>
<path d="M280 620 c0 -5 5 -10 10 -10 6 0 10 5 10 10 0 6 -4 10 -10 10 -5 0
-10 -4 -10 -10z"/>
<path d="M180 610 c0 -5 5 -10 10 -10 6 0 10 5 10 10 0 6 -4 10 -10 10 -5 0
-10 -4 -10 -10z"/>
<path d="M225 600 c3 -5 8 -10 11 -10 2 0 4 5 4 10 0 6 -5 10 -11 10 -5 0 -7
-4 -4 -10z"/>
<path d="M287 803 c-4 -3 -7 -11 -7 -16 0 -6 3 -7 7 -4 3 4 16 0 29 -8 20 -13
23 -12 28 1 8 22 9 21 -16 20 -13 -1 -26 2 -29 6 -3 5 -8 5 -12 1z"/>
<path d="M360 775 c0 -8 5 -15 10 -15 6 0 10 7 10 15 0 8 -4 15 -10 15 -5 0
-10 -7 -10 -15z"/>
<path d="M390 776 c0 -9 5 -16 10 -16 6 0 10 4 10 9 0 6 -4 13 -10 16 -5 3
-10 -1 -10 -9z"/>
<path d="M420 781 c0 -5 5 -13 10 -16 6 -3 10 -2 10 4 0 5 -4 13 -10 16 -5 3
-10 2 -10 -4z"/>
<path d="M230 759 c0 -5 5 -7 10 -4 6 3 10 8 10 11 0 2 -4 4 -10 4 -5 0 -10
-5 -10 -11z"/>
<path d="M260 749 c0 -5 5 -7 10 -4 6 3 10 8 10 11 0 2 -4 4 -10 4 -5 0 -10
-5 -10 -11z"/>
<path d="M295 739 c-4 -6 -5 -12 -2 -15 2 -3 7 2 10 11 7 17 1 20 -8 4z"/>
<path d="M320 730 c0 -5 5 -10 10 -10 6 0 10 5 10 10 0 6 -4 10 -10 10 -5 0
-10 -4 -10 -10z"/>
<path d="M362 720 c0 -14 2 -19 5 -12 2 6 2 18 0 25 -3 6 -5 1 -5 -13z"/>
<path d="M460 732 c0 -5 7 -15 15 -22 8 -7 15 -8 15 -2 0 5 -7 15 -15 22 -8 7
-15 8 -15 2z"/>
<path d="M500 725 c7 -8 17 -15 22 -15 6 0 5 7 -2 15 -7 8 -17 15 -22 15 -6 0
-5 -7 2 -15z"/>
<path d="M390 721 c0 -6 5 -13 10 -16 6 -3 10 1 10 9 0 9 -4 16 -10 16 -5 0
-10 -4 -10 -9z"/>
<path d="M430 721 c0 -5 5 -13 10 -16 6 -3 10 -2 10 4 0 5 -4 13 -10 16 -5 3
-10 2 -10 -4z"/>
<path d="M337 683 c-4 -3 -7 -11 -7 -17 0 -6 5 -5 12 2 6 6 9 14 7 17 -3 3 -9
2 -12 -2z"/>
<path d="M211 814 c0 -11 3 -14 6 -6 3 7 2 16 -1 19 -3 4 -6 -2 -5 -13z"/>
<path d="M230 820 c0 -5 5 -10 11 -10 5 0 7 5 4 10 -3 6 -8 10 -11 10 -2 0 -4
-4 -4 -10z"/>
<path d="M995 750 c3 -5 8 -10 11 -10 2 0 4 5 4 10 0 6 -5 10 -11 10 -5 0 -7
-4 -4 -10z"/>
<path d="M970 719 c0 -5 5 -7 10 -4 6 3 10 8 10 11 0 2 -4 4 -10 4 -5 0 -10
-5 -10 -11z"/>
<path d="M935 710 c3 -5 8 -10 11 -10 2 0 4 5 4 10 0 6 -5 10 -11 10 -5 0 -7
-4 -4 -10z"/>
<path d="M920 659 c0 -5 5 -7 10 -4 6 3 10 8 10 11 0 2 -4 4 -10 4 -5 0 -10
-5 -10 -11z"/>
<path d="M550 775 c0 -8 4 -15 10 -15 5 0 7 7 4 15 -4 8 -8 15 -10 15 -2 0 -4
-7 -4 -15z"/>
<path d="M585 770 c3 -5 8 -10 11 -10 2 0 4 5 4 10 0 6 -5 10 -11 10 -5 0 -7
-4 -4 -10z"/>
<path d="M631 721 c-9 -6 -6 -8 13 -8 14 0 23 3 20 8 -7 11 -15 11 -33 0z"/>
<path d="M810 710 c0 -5 5 -10 11 -10 5 0 7 5 4 10 -3 6 -8 10 -11 10 -2 0 -4
-4 -4 -10z"/>
<path d="M790 701 c0 -6 4 -13 10 -16 6 -3 7 1 4 9 -7 18 -14 21 -14 7z"/>
<path d="M722 688 c2 -6 10 -14 16 -16 7 -2 10 2 6 12 -7 18 -28 22 -22 4z"/>
<path d="M756 685 c4 -8 8 -15 10 -15 2 0 4 7 4 15 0 8 -4 15 -10 15 -5 0 -7
-7 -4 -15z"/>
<path d="M700 670 c0 -5 5 -10 11 -10 5 0 7 5 4 10 -3 6 -8 10 -11 10 -2 0 -4
-4 -4 -10z"/>
<path d="M840 660 c0 -5 5 -10 11 -10 5 0 7 5 4 10 -3 6 -8 10 -11 10 -2 0 -4
-4 -4 -10z"/>
<path d="M390 620 c0 -5 5 -10 10 -10 6 0 10 5 10 10 0 6 -4 10 -10 10 -5 0
-10 -4 -10 -10z"/>
<path d="M440 590 c0 -5 5 -10 10 -10 6 0 10 5 10 10 0 6 -4 10 -10 10 -5 0
-10 -4 -10 -10z"/>
<path d="M498 593 c7 -3 16 -2 19 1 4 3 -2 6 -13 5 -11 0 -14 -3 -6 -6z"/>
<path d="M395 570 c-3 -5 1 -10 10 -10 9 0 13 5 10 10 -3 6 -8 10 -10 10 -2 0
-7 -4 -10 -10z"/>
<path d="M825 581 c-6 -11 9 -23 19 -14 9 9 7 23 -3 23 -6 0 -12 -4 -16 -9z"/>
<path d="M1240 770 c0 -5 5 -10 10 -10 6 0 10 5 10 10 0 6 -4 10 -10 10 -5 0
-10 -4 -10 -10z"/>
<path d="M1210 750 c0 -5 5 -10 10 -10 6 0 10 5 10 10 0 6 -4 10 -10 10 -5 0
-10 -4 -10 -10z"/>
<path d="M1160 740 c0 -5 5 -10 10 -10 6 0 10 5 10 10 0 6 -4 10 -10 10 -5 0
-10 -4 -10 -10z"/>
<path d="M1130 710 c0 -5 5 -10 10 -10 6 0 10 5 10 10 0 6 -4 10 -10 10 -5 0
-10 -4 -10 -10z"/>
<path d="M1222 672 c-8 -6 21 -9 72 -9 47 1 86 4 86 8 0 10 -143 10 -158 1z"/>
<path d="M1020 609 c0 -5 5 -7 10 -4 6 3 10 8 10 11 0 2 -4 4 -10 4 -5 0 -10
-5 -10 -11z"/>
<path d="M1030 580 c0 -5 5 -10 10 -10 6 0 10 5 10 10 0 6 -4 10 -10 10 -5 0
-10 -4 -10 -10z"/>
<path d="M1090 579 c0 -5 5 -7 10 -4 6 3 10 8 10 11 0 2 -4 4 -10 4 -5 0 -10
-5 -10 -11z"/>
<path d="M1050 550 c0 -5 5 -10 10 -10 6 0 10 5 10 10 0 6 -4 10 -10 10 -5 0
-10 -4 -10 -10z"/>
<path d="M60 348 l0 -48 135 0 135 0 0 48 0 47 -135 0 -135 0 0 -47z m240 -3
c0 -12 -18 -15 -105 -15 -87 0 -105 3 -105 15 0 12 18 15 105 15 87 0 105 -3
105 -15z"/>
<path d="M493 393 l-133 -4 0 -44 0 -45 135 0 135 0 0 50 c0 28 -1 49 -2 48
-2 -1 -63 -4 -135 -5z m105 -45 c3 -16 -7 -18 -97 -18 -56 0 -103 4 -106 10
-15 24 10 31 103 28 83 -3 97 -6 100 -20z"/>
<path d="M738 393 c-56 -4 -58 -5 -58 -32 0 -31 31 -81 91 -150 66 -75 50
-111 -48 -111 l-63 0 0 -45 0 -45 81 0 c116 0 164 27 183 103 11 45 -10 98
-64 161 -60 70 -72 90 -64 110 3 9 5 15 3 14 -2 -1 -30 -3 -61 -5z m44 -61 c9
-15 38 -52 63 -84 99 -120 55 -219 -96 -214 -43 1 -54 5 -57 19 -3 14 4 17 38
17 64 0 109 31 110 77 0 11 -19 44 -42 73 -97 117 -107 140 -60 140 19 0 32
-8 44 -28z"/>
<path d="M960 348 l0 -48 55 0 55 0 0 48 0 47 -55 0 -55 0 0 -47z m80 -3 c0
-9 -9 -15 -25 -15 -16 0 -25 6 -25 15 0 9 9 15 25 15 16 0 25 -6 25 -15z"/>
<path d="M60 128 l0 -118 55 0 55 0 0 70 0 70 80 0 80 0 0 48 0 47 -135 0
-135 0 0 -117z m240 72 c0 -18 -7 -20 -62 -20 -83 0 -92 -7 -95 -72 -1 -29 -2
-58 -3 -64 0 -6 -10 -11 -22 -10 -22 1 -23 5 -25 94 l-1 92 104 0 c97 0 104
-1 104 -20z"/>
<path d="M364 241 c-2 -2 -4 -55 -4 -118 l0 -113 135 0 135 0 0 45 0 45 -80 0
c-79 0 -80 0 -80 25 0 25 1 25 80 25 l80 0 0 48 0 47 -131 0 c-72 0 -133 -2
-135 -4z m236 -40 c0 -19 -6 -21 -63 -21 -70 0 -87 -10 -87 -51 0 -44 24 -59
91 -59 52 0 59 -2 59 -19 0 -18 -7 -20 -100 -19 l-100 1 0 92 0 91 100 3 c95
2 100 1 100 -18z"/>
<path d="M960 128 l0 -118 55 0 55 0 0 118 0 117 -55 0 -55 0 0 -117z m80 -3
c0 -84 0 -85 -25 -85 -25 0 -25 1 -25 85 0 84 0 85 25 85 25 0 25 -1 25 -85z"/>
</g>
</svg>
